<svg xmlns="http://www.w3.org/2000/svg" width="200" height="60" fill="none" viewBox="0 0 200 60">
  <path fill="#FCA618" d="M34.875 54.809c-.606.72-1.121 1.423-1.74 2.023-2.845 2.76-6.63 2.746-9.486 0-1.808-1.738-2.956-3.897-3.901-6.168-1.575-3.784-2.362-7.764-2.875-11.81a60.714 60.714 0 0 1-.47-8.398c.002-.205-.03-.41-.064-.846-.487.366-.87.602-1.189.905-.993.945-1.945 1.932-2.945 2.868-.44.411-.403.867-.35 1.382.197 1.911-.55 3.373-2.206 4.346-.397.233-.862.381-1.315.478-.462.098-.67.36-.784.773-.456 1.656.12 2.801 1.804 3.204 1.037.248 2.137.285 3.212.32.852.028 1.71-.092 2.606-.148l1.05 3.993c-.096.117-.134.21-.186.219-2.73.49-5.455.596-8.145-.22-3.85-1.17-5.633-4.41-4.56-8.368.263-.967.32-1.782-.055-2.78-1.045-2.776 1.171-5.732 4.205-5.707.754.006 1.263-.193 1.781-.735 3.616-3.782 7.852-6.777 12.308-9.486.462-.281.928-.558 1.39-.839.028-.017.043-.056.115-.157-.247-.123-.473-.273-.722-.355-2.505-.82-5.008-1.673-7.64-1.98-1.825-.212-3.677-.398-5.489.131-1.618.472-2.13 1.386-1.735 3.022.361 1.496 1.143 2.789 2.012 4.036.225.323.46.64.612.85l-3.015 3.083c-.009-.006-.153-.055-.237-.155-1.683-2.01-3.068-4.192-3.709-6.76-.58-2.33-.328-4.52 1.396-6.348 1.267-1.343 2.91-1.955 4.698-2.252 2.908-.483 5.766-.106 8.597.53 5.143 1.156 9.992 3.094 14.625 5.584.882.474 1.767.944 2.842 1.518-.163-.842-.26-1.504-.422-2.15-.375-1.5-.795-2.988-1.168-4.488-.138-.557-.456-.82-1.005-.973-1.734-.479-2.755-1.674-3.114-3.39-.12-.576-.026-1.21.045-1.808.09-.761-.006-1.043-.747-1.12-.507-.052-1.119 0-1.54.246a4.661 4.661 0 0 0-1.479 1.386c-.696 1.045-1.263 2.175-1.877 3.273-.154.276-.283.565-.441.884l-4.075-1.093c.07-.29.1-.53.185-.749.79-2.024 1.764-3.962 3.227-5.584.712-.79 1.57-1.504 2.484-2.051 2.282-1.366 5.133-1.019 7.258.791.428.365.82.578 1.427.585 3.497.04 5.375 3.711 3.844 6.367-.341.592-.296 1.117-.135 1.74.645 2.505 1.348 5.003 1.82 7.543.626 3.361.874 6.774.867 10.198v1.065c.243-.086.428-.103.546-.2 2.708-2.236 5.293-4.597 7.096-7.653.543-.92 1.028-1.921 1.283-2.948.423-1.706-.194-2.567-1.908-3.003-1.603-.407-3.226-.288-4.847-.117-.212.023-.422.051-.784.095l-1.061-4.21c1.751-.338 3.428-.526 5.125-.396a17.8 17.8 0 0 1 2.356.335c4.449.953 6.566 4.477 5.313 8.831-.68 2.36-1.958 4.402-3.495 6.286-2.915 3.576-6.384 6.56-10.164 9.183-1.865 1.294-3.832 2.442-5.752 3.658-.117.074-.224.165-.431.318.278.143.473.28.69.347 1.413.439 2.835.85 4.245 1.297.495.157.86.07 1.29-.247 2.043-1.503 4.386-1.303 6.152.541.394.411.734.52 1.228.342.17-.061.348-.1.518-.161 1.355-.482 1.783-1.114 1.56-2.547a6.21 6.21 0 0 0-.63-1.934c-.655-1.231-1.411-2.409-2.162-3.668l3.126-2.948c.614.839 1.223 1.585 1.737 2.39 1.172 1.835 2.089 3.76 2.3 5.984.28 2.958-1.187 5.185-3.336 6.25-.895.444-1.873.789-2.853.976-.733.14-1.212.427-1.679.988-1.297 1.56-3.293 2.09-5.08 1.435-1.103-.404-1.924-1.144-2.417-2.2-.237-.506-.572-.735-1.114-.88-4.135-1.112-8.035-2.812-11.818-4.792-1.242-.651-2.483-1.305-3.85-2.024 0 .326-.04.56.006.776.634 3.069 1.302 6.131 2.74 8.951.456.894 1.003 1.746 1.561 2.582.255.382.607.72.97 1.007 1.036.819 2.104.842 3.016-.102.79-.82 1.448-1.783 2.075-2.74.45-.687.752-1.47 1.112-2.192.867-.013 2.826.516 4.153 1.13-.523 1.713-1.398 3.262-2.406 4.835Zm-8.502-16.706c.413.222.842.418 1.233.673.554.36 1.058.307 1.61-.015a481.564 481.564 0 0 1 5.999-3.443c.56-.316.799-.732.789-1.384a271.396 271.396 0 0 1-.022-6.995c.006-.594-.245-.93-.72-1.2a822.284 822.284 0 0 1-6.19-3.54c-.491-.283-.923-.283-1.413.005a454.837 454.837 0 0 1-6.08 3.518c-.567.321-.801.742-.794 1.392.025 2.264.029 4.527-.003 6.79-.01.705.276 1.136.867 1.47 1.537.867 3.059 1.762 4.724 2.728Z"/>
  <path fill="#64A1FD" d="M76.516 52.07c-1.409 0-2.71-.034-4.01.007-2.027.064-3.274-1.334-3.268-3.2.022-7.519-.002-15.037.018-22.556.005-2.04 1.203-3.217 3.25-3.225 5.096-.018 10.19.004 15.285-.012 1.421-.004 2.39.673 3.143 1.967.28-.895.118-1.701.143-2.488.027-.863.002-1.727 0-2.59l-.008-2.483c-.002-.863-.006-1.726-.007-2.59v-2.546h7.44v39.643h-7.398v-1.75c-.216.16-.343.209-.4.301-.694 1.131-1.725 1.539-3.022 1.53-3.686-.025-7.371-.009-11.166-.008Zm2.074-21.69-1.776.044v14.38c.306.019.55.047.796.047 3.395.003 6.79.013 10.185-.003 2.098-.01 3.252-1.188 3.259-3.31.01-3.416.005-6.832 0-10.248 0-.276-.044-.551-.074-.91H78.59Zm113.754-7.29c.576.002 1.047-.016 1.516.01 1.737.091 2.891 1.232 2.994 2.947.015.252.006.504.007.756l-.001 21.593c0 .324.011.65-.023.971-.16 1.547-1.205 2.56-2.758 2.678-.324.025-.65.023-.975.023-4.772 0-9.544-.03-14.315.018-1.531.014-2.791-.33-3.722-1.742v1.658h-7.356c-.2-.736-.253-38.432-.045-39.676h7.294v12.745c.258-.252.387-.34.467-.461.723-1.085 1.735-1.536 3.038-1.529 4.591.024 9.181.01 13.879.01Zm-17.291 9.746v11.94h14.208c.209-1.953.124-13.604-.103-14.364-.171-.01-.349-.029-.528-.029-3.465-.002-6.931-.01-10.396.002-1.664.006-2.537.654-3.181 2.45Zm-14.513 5.339v13.84h-7.449V39.48c-.396-.031-.675-.073-.953-.073-2.53-.005-5.062.064-7.589-.022-2.28-.078-3.451 1.644-3.395 3.44.082 2.66.021 5.325.021 7.987v1.191c-2.483.137-4.914.04-7.423.054V12.325h7.381v19.688c.353-.377.552-.549.702-.755 1.57-2.155 3.16-4.297 4.684-6.483.822-1.179 1.904-1.696 3.309-1.687 2.023.014 4.047.003 6.071.005.203 0 .405.018.849.038l-6.747 8.92c.39.04.653.09.916.091 2.168.007 4.337.01 6.505.003 1.043-.004 1.893.357 2.542 1.192.398.512.555 1.085.562 1.71.013 1.007.01 2.014.014 3.13Zm-33.914 13.894c-1.266 0-2.424-.037-3.579.014-.625.028-.985-.214-1.328-.703-1.596-2.27-3.224-4.518-4.843-6.771-.208-.29-.431-.569-.714-.941-.238.28-.452.497-.628.742-1.663 2.31-3.336 4.614-4.969 6.946-.372.531-.781.736-1.427.726-2.205-.035-4.41-.01-6.616-.016-.278 0-.556-.04-.987-.074l10.339-14.33-10.338-14.464c.377-.05.605-.103.832-.104 1.844-.007 3.688.011 5.532-.009 1.412-.015 2.473.508 3.282 1.708 1.348 2.001 2.792 3.94 4.198 5.903.208.29.429.573.733.98.252-.319.472-.574.666-.848 1.415-2 2.859-3.983 4.222-6.018.803-1.197 1.864-1.736 3.278-1.724 2.087.017 4.175.004 6.497.004l-10.413 14.573 10.397 14.406h-4.134Z"/>
</svg>
